<svg version="1.2" xmlns="http://www.w3.org/2000/svg" viewBox="0 0 1000 1000" width="1000" height="1000">
	<style>
		.s0 { fill: #000000 } 
	</style>
	<g>
		<path class="s0" d="m314.1 990c-65.3-135.9-30.5-213.8 19.7-287.1 55-80.4 69.1-159.9 69.1-159.9 0 0 43.2 56.2 25.9 144 76.3-85 90.7-220.4 79.2-272.2 172.6 120.6 246.3 381.7 147 575.2 528.6-299.1 131.5-746.6 62.3-797.1 23.1 50.4 27.4 135.8-19.1 177.2-78.8-298.9-273.7-360.1-273.7-360.1 23.1 154.1-83.5 322.7-186.3 448.6-3.6-61.5-7.4-103.9-39.7-162.7-7.3 111.7-92.6 202.6-115.7 314.5-31.3 151.5 23.4 262.4 231.3 379.6z"/>
	</g>
</svg>